<?xml version="1.0" encoding="UTF-8" standalone="no"?>
<!DOCTYPE svg PUBLIC "-//W3C//DTD SVG 1.1//EN" "http://www.w3.org/Graphics/SVG/1.1/DTD/svg11.dtd">
<svg width="100%" height="100%" viewBox="0 0 1024 1024" version="1.1" xmlns="http://www.w3.org/2000/svg" xmlns:xlink="http://www.w3.org/1999/xlink" xml:space="preserve" xmlns:serif="http://www.serif.com/" style="fill-rule:evenodd;clip-rule:evenodd;stroke-linejoin:round;stroke-miterlimit:2;">
    <path id="LinkedIn" d="M189.046,233.563C189.046,207.86 210.426,187 236.785,187L787.215,187C813.582,187 834.954,207.86 834.954,233.563L834.954,790.446C834.954,816.157 813.582,837 787.215,837L236.785,837C210.426,837 189.046,816.157 189.046,790.455L189.046,233.563ZM438.84,731.113L536.389,731.113L536.389,567.224C536.389,558.46 537.029,549.68 539.603,543.422C546.653,525.887 562.706,507.738 589.661,507.738C624.954,507.738 639.079,534.65 639.079,574.112L639.079,731.113L736.629,731.113L736.629,562.825C736.629,472.675 688.506,430.724 624.323,430.724C572.573,430.724 549.364,459.167 536.398,479.163L536.398,480.168L535.75,480.168C535.963,479.836 536.179,479.501 536.398,479.163L536.398,437.612L438.849,437.612C440.115,465.057 438.848,729.369 438.84,731.113L438.84,731.113L438.84,731.122L438.84,731.113ZM287.286,437.604L287.286,731.113L384.844,731.113L384.844,437.604L287.286,437.604ZM336.082,397.537C370.096,397.537 391.272,374.998 391.272,346.832C390.632,318.026 370.096,296.118 336.73,296.118C303.338,296.118 281.532,318.026 281.532,346.832C281.532,374.998 302.699,397.537 335.443,397.537L336.082,397.537ZM189.046,233.563C189.046,233.563 189.046,233.554 189.046,233.554L189.046,233.563Z" style="fill:rgb(148,168,255);fill-rule:nonzero;"/>
</svg>
