<?xml version="1.0" encoding="UTF-8" standalone="no"?>
<!DOCTYPE svg PUBLIC "-//W3C//DTD SVG 1.1//EN" "http://www.w3.org/Graphics/SVG/1.1/DTD/svg11.dtd">
<svg width="100%" height="100%" viewBox="0 0 1024 1024" version="1.1" xmlns="http://www.w3.org/2000/svg" xmlns:xlink="http://www.w3.org/1999/xlink" xml:space="preserve" xmlns:serif="http://www.serif.com/" style="fill-rule:evenodd;clip-rule:evenodd;stroke-linejoin:round;stroke-miterlimit:2;">
    <g id="Twitch" transform="matrix(2.42817,0,0,2.42817,201.194,187)">
        <path d="M17.458,0L0,46.556L0,232.757L63.983,232.757L63.983,267.691L98.914,267.691L133.812,232.757L186.172,232.757L256,162.954L256,0L17.458,0ZM40.717,23.263L232.731,23.263L232.731,151.292L191.992,192.033L128,192.033L93.113,226.919L93.113,192.033L40.717,192.033L40.717,23.263ZM104.725,139.668L128,139.668L128,69.844L104.725,69.844L104.725,139.668ZM168.722,139.668L191.992,139.668L191.992,69.844L168.722,69.844L168.722,139.668Z" style="fill:rgb(148,168,255);fill-rule:nonzero;"/>
    </g>
</svg>
